/* XPM */
static char *collectible1635973028[] = {
/* columns rows colors chars-per-pixel */
"64 64 236 2 ",
"   c None",
".  c #000000",
"X  c #0F0000",
"o  c #1D0200",
"O  c #081700",
"+  c #1D1A00",
"@  c #220000",
"#  c #2D0000",
"$  c #310000",
"%  c #360600",
"&  c #261800",
"*  c #262400",
"=  c #2C2400",
"-  c #2C2A03",
";  c #302500",
":  c #372A00",
">  c #3F2D00",
",  c #3F3200",
"<  c #460002",
"1  c #5F1617",
"2  c #551517",
"3  c #511500",
"4  c #760000",
"5  c #601718",
"6  c #601617",
"7  c #791719",
"8  c #680607",
"9  c #443500",
"0  c #483700",
"q  c #493800",
"w  c #433C00",
"e  c #472B03",
"r  c #6E3D00",
"t  c #740027",
"y  c #694700",
"u  c #754700",
"i  c #735600",
"p  c #7D5C00",
"a  c #7B520B",
"s  c #794B13",
"d  c #776101",
"f  c #7C641B",
"g  c #4C463D",
"h  c #7D004C",
"j  c #736E6F",
"k  c #7B515B",
"l  c #9B0000",
"z  c #881B1E",
"x  c #921C1E",
"c  c #9A1C1F",
"v  c #A60000",
"b  c #A3060A",
"n  c #B40000",
"m  c #B8020B",
"M  c #AA1619",
"N  c #A8191C",
"B  c #B6141A",
"V  c #8E152E",
"C  c #A61E21",
"Z  c #AC1E21",
"A  c #B31E21",
"S  c #A2003C",
"D  c #8C2C29",
"F  c #AB2225",
"G  c #B62629",
"H  c #BD2D30",
"J  c #B12F34",
"K  c #C43336",
"L  c #CD2730",
"P  c #815E00",
"I  c #865701",
"U  c #925F00",
"Y  c #846200",
"T  c #8A6600",
"R  c #8D6A01",
"E  c #926C00",
"W  c #957001",
"Q  c #9D7401",
"!  c #9B7615",
"~  c #856518",
"^  c #A57300",
"/  c #A67A02",
"(  c #AB7E00",
")  c #A57D0E",
"_  c #B37A06",
"`  c #9C4D27",
"'  c #94792C",
"]  c #8E6F31",
"[  c #A14F2A",
"{  c #872C4B",
"}  c #AD3F40",
"|  c #DD3D4C",
" . c #B95253",
".. c #B2454D",
"X. c #8C774B",
"o. c #937A47",
"O. c #8F6B4B",
"+. c #A27056",
"@. c #8B7772",
"#. c #BB6B6C",
"$. c #BE7576",
"%. c #CA4645",
"&. c #DC4447",
"*. c #C95254",
"=. c #E64A4E",
"-. c #EA4E52",
";. c #E44951",
":. c #F95559",
">. c #F05155",
",. c #EA666A",
"<. c #AE8100",
"1. c #B58400",
"2. c #B98600",
"3. c #BC8A00",
"4. c #9F8637",
"5. c #AC8C38",
"6. c #B68D2B",
"7. c #C28E00",
"8. c #C59100",
"9. c #CB9500",
"0. c #CE9901",
"q. c #CE980C",
"w. c #D39B01",
"e. c #D99F00",
"r. c #D59F0A",
"t. c #CE9814",
"y. c #DBA202",
"u. c #DEA60F",
"i. c #DBA313",
"p. c #E5AB02",
"a. c #EAAD01",
"s. c #E4AB09",
"d. c #E5AA06",
"f. c #EFB204",
"g. c #EDB30A",
"h. c #F4B500",
"j. c #FDBE01",
"k. c #F2B60A",
"l. c #F5B90A",
"z. c #FBBD0B",
"x. c #F6B802",
"c. c #F5BB1A",
"v. c #EEB61D",
"b. c #D9A627",
"n. c #D6A83B",
"m. c #F5BD28",
"M. c #E7B432",
"N. c #EBB62E",
"B. c #C69B2B",
"V. c #FEC102",
"C. c #FFC10C",
"Z. c #FFC80D",
"A. c #FDC119",
"S. c #FCC329",
"D. c #FCC534",
"F. c #FFCA34",
"G. c #FFC838",
"H. c #9C8446",
"J. c #9C8856",
"K. c #AB9653",
"L. c #9D8C68",
"P. c #91877B",
"I. c #AA9861",
"U. c #A7927B",
"Y. c #A18472",
"T. c #BAA673",
"R. c #D6AE4C",
"E. c #E2BF4C",
"W. c #E7BC53",
"Q. c #CEB478",
"!. c #D0B566",
"~. c #F8C948",
"^. c #EAC65C",
"/. c #F7CC56",
"(. c #FDD55B",
"). c #F1CA4D",
"_. c #DDC266",
"`. c #EDCC62",
"'. c #E6CA6C",
"]. c #F9D563",
"[. c #FEDA63",
"{. c #FDDA6A",
"}. c #F7D66C",
"|. c #E7CC74",
" X c #FADB7B",
".X c #F9D877",
"XX c #EDD073",
"oX c #FFE178",
"OX c #797F82",
"+X c #A47F88",
"@X c #8D8081",
"#X c #A79989",
"$X c #B28B8C",
"%X c #B7A78E",
"&X c #B4A9AA",
"*X c #D38C8C",
"=X c #E49295",
"-X c #E79599",
";X c #EB8D8F",
":X c #C9BA96",
">X c #CCBA8C",
",X c #FDAAAC",
"<X c #FDA4A6",
"1X c #FFAFB1",
"2X c #F7B5B6",
"3X c #EBA0A3",
"4X c #D7B0B0",
"5X c #F6DB86",
"6X c #ECD99F",
"7X c #EAD496",
"8X c #F6DD95",
"9X c #E6CF8F",
"0X c #FEE385",
"qX c #FCE59D",
"wX c #E3D3A5",
"eX c #E8DBBA",
"rX c #F1DDA0",
"tX c #FEEAAB",
"yX c #FCE9A6",
"uX c #FAE9B7",
"iX c #F3E6BC",
"pX c #DFCA8B",
"aX c #D8D8DC",
"sX c #D6CDCC",
"dX c #E7DCDA",
"fX c #E3CECE",
"gX c #F7EBC7",
"hX c #FEF3C9",
"jX c #F6F0CF",
"kX c #ECEAE7",
"lX c #F3EBE7",
"zX c #F7F3EB",
"xX c #FFFEF2",
"cX c #FEFEFE",
"vX c #F6F3F4",
"bX c #EDEEF3",
/* pixels */
"                                                                                                                                ",
"                                                                                                                                ",
"                                                                                                                                ",
"                                                                                                                                ",
"                                                                                                                                ",
"                                                                                                                                ",
"                                                                                                                                ",
"                                                                                                                                ",
"                                                                                                                                ",
"                                                                                                                                ",
"                                                                                                                                ",
"                                                                                                                                ",
"                                                                                                                                ",
"                                                                                                                                ",
"                                                                                                                                ",
"                                                                                                                                ",
"                                        0 9 0 q 0 9 : = ; = = : 9 q q q q q q 9 : = = =                                         ",
"                                        p E T T T R W Q Q Q Q Q R T T T T T T R Q Q <.R                                         ",
"                        0 q q q q e . y ^ 3.2.1.1.3.y.g.s.s.g.d.8.2.2.3.3.3.2.8.u.g.l.i.T . = = - ; ; =                         ",
"                        p E T Y Y R ' 5.n.M.i.y.y.s.l.C.C.C.C.g.y.0.w.9.w.w.9.y.k.z.C.s.<.p W Q Q Q ( R                         ",
"                0 9 * i ( 7.2.1._ 8.E.'.`.).N.f.f.g.l.z.C.l.d.w.9.9.9.9.9.9.9.w.y.y.y.0.7.8.s.g.g.p.h.0.p . & *                 ",
"                p E P Q 8.i.b.n.R.!.}.oX.X}.~.m.A.j.z.z.l.d.0.8.9.9.9.0.9.9.9.9.8.8.8.8.8.y.f.z.V.A.F.N.6.' ) R                 ",
"            O i _ 7.2.3.9.b.^.XX7X8X.X}.}.}.{.(.F.V.V.l.d.e.w.0.0.w.w.w.w.w.0.w.w.0.9.9.9.w.w.p.x.F.(.}.`.E.v.9.p .             ",
"            i / 8.e.y.e.2.B.^.0XtXtX0X X.X}.'.^.M.p.a.u.7.1.2.3.3.3.3.3.3.3.3.3.2.7.8.0.9.8.7.0.a.N.^.|.0X0X(.c.t.p             ",
"        q p ( 8.7.e.l.d.P T E.0XtXuXuXqX0X`.K.' W Q Q Q R T T T T T T T T T T T d ^ 8.e.w.w.w.w.y.8.R I.6XyX X).N.0.R =         ",
"        9 E 7.y.e.y.p.b.H.I.|.0X7XwXwX7X|.R.~ O o - = : 9 q 0 q q 0 q q q q q 9 = i ( 8.3.2.3.7.9.1.u O.>X6X5X].F.f./ =         ",
"        * P 2.y.f.p./ H.Q.rXuXrXT.X.J.J.K.]                                         d W R T p Q 8.w.7.6.o.I.|.{.F.p.Q .         ",
"        i Q 3.y.z.p.u j eXhXiX:XO.. @ $ $ $                                         q q 0 9 * i <.8.r.3.3 d W.{.G.p.<.y         ",
"    q p ( 8.7.y.z.p.r OXzXxX:Xd                                                                 i / t.3.3 d '.{.D.a.w./ p 0     ",
"    q E 8.e.9.e.f.p.^ U.dXaX@..                                                                 & i ( 6.X.I.'.[.G.h.p.7.E q     ",
"    q T 3.w.9.9.0.y.p.R.U.j g o & *                                                         o # # 3 < o.>XrX5X].D.h.y.2.T q     ",
"    q T 3.w.9.9.8.w.c.p.^ u T ! <.R                                                         @X#XL.X.~ I.6XyX X).m.a.y.2.T q     ",
"    q E 8.e.9.9.9.0.w.y.p.p.p.s.g.q.Y . + ; - ; % #                         @ # # $ $ o . +XaXzXeXpX_._.5X X/.v.u.w.e.8.E q     ",
"    q p ( 8.9.9.9.8.8.w.f.C.C.C.Z.g.3.E Q Q Q ! H.'                         P.#XL.J.J.J.d %XlXxXhXqX0X[.].~.A.f.e.7.7.<.p 9     ",
"        i Q 3.w.9.9.9.9.0.y.l.C.C.C.g.s.s.d.p.M.`._.] . @ # # # $ # # . . P.aXzXeX9XwX9X_.XXqXyX8X XoX}.~.c.C.h.y.2.Q i         ",
"        * Y 3.w.9.9.9.8.8.w.s.k.g.g.l.z.C.V.V.F.(.`.6.R ' 5.5.H.J.I.#X#XP.&XvXxXhXtXtXyX0X[.).G.).(.]./.S.x.h.s.e.1.Y *         ",
"        9 E 8.e.0.9.9.9.8.9.e.e.y.y.0.y.l.C.V.A.D.S.y.N.^.XX^.XX9XiXlXbXbXkXgXtXyX6X5X.X X].~.c.D.D.D.D.A.h.y.y.e.8.E 9         ",
"        q p ( 8.9.0.9.9.9.9.8.8.8.8.8.w.d.g.g.h.x.V.S.~.^.`.`.|.9XeXkXvXcXxXhXiXgXuX8X{.}.~.m.x.x.h.h.f.h.s.0.8.8.( p q         ",
"            i / 8.e.w.0.9.9.9.9.9.9.8.0.y.w.0.y.h.F.[.`.5.u ~ ] ] @.j %XiXzXxXcXcXzXgX5X/.V.z.j.V.x.y.w.y.y.y.8./ i             ",
"            O i ( 8.3.7.9.0.9.9.9.9.9.9.8.8.0.y.y.M.^.!.+.h { { { V l O.!.wXdXbXcXxXuX.XW.a.h.k.k.s.y.3.3.1.3.<.i O             ",
"                p E Y Q 8.e.w.w.0.0.9.8.8.y.x.d._ a f +.*X=X=X=X*X=X=X*X .s k #XiXuX Xm.i.9.e.y.y.y.y.7.Q P E p                 ",
"                0 0 * a ( 8.3.2.2.7.9.9.9.w.f.t.[ t 4 ..-X2X,X,X<X,X,X3X+Xj k Y.>XpX~.h.p.9.3.1.1.2.7.<.i * 9 0                 ",
"                        p E R T Y Q 8.e.y.8.W ` %.| K ,.3X1X,X,X,X<X<X2XdXkXkXsX@.Q W.[.F.p.( i Y T E p                         ",
"                        9 q q 9 * i <.8.3.) D S ;.:.:.,.;X=X=X=X=X;X*X2XvXcXcXvX&X+.!.^.N.e.R . 9 q q 0                         ",
"                                    p E p [ %.| >.:.:.-.*. . . . ...B *XvXcXcXcXbXsX$XT / E                                     ",
"                                    w e $ V ;.:.-.=.=.&.L n m m m n v #.fXvXkXlXcXbX+X. @ -                                     ",
"                                        < J >.:.K K H K &.=.;.=.>.&.m } $.*X#.4XcXvX$X%                                         ",
"                                        < D %.| G b b G &.-.-.-.>.=.H v v v l #.dXdX@X<                                         ",
"                                            D J G A A G H K H H K H G M b n n } Y.+X                                            ",
"                                            # 8 x Z C N M M M M M M Z Z Z F F l 8 o                                             ",
"                                                7 x z x Z A A A A A G Z x z x 7                                                 ",
"                                                1 2 2 7 c F C C C C Z c 7 2 1 5                                                 ",
"                                                        7 x z z z z x 7                                                         ",
"                                                        1 1 5 5 1 1 1 5                                                         ",
"                                                                                                                                ",
"                                                                                                                                ",
"                                                                                                                                ",
"                                                                                                                                ",
"                                                                                                                                ",
"                                                                                                                                ",
"                                                                                                                                ",
"                                                                                                                                ",
"                                                                                                                                ",
"                                                                                                                                "
};
