/* XPM */
static char *empty1635955400[] = {
/* columns rows colors chars-per-pixel */
"64 64 4 1 ",
"  c #FEE761",
". c #FEAE34",
"X c #F77622",
"o c white",
/* pixels */
"                 .............XX................              ..",
"                 .............X.................              . ",
"                 ............XX.................             .. ",
"                 ............XX.................             .. ",
"                 ...........XXX.................            ... ",
"                 ..........XXX..................           ...  ",
"                 .........XXX....................         ...   ",
"                 ........XXX.....................        ...    ",
"                 .......XXX......................       ...     ",
"                 .....XXXX.......................     ....      ",
"                ....XXXXX........................   .....       ",
"                ...XXXXX.........................  .....        ",
"               ..XXXXX...........................XX...          ",
"             ...XXXX..........................XXXX..            ",
"           ...XXXX.........................XXXXX...             ",
"        .....XX........       ............XXXXXX.               ",
"      .......   .....             .......XXXX....               ",
"    .......                        .....XXX.....                ",
"   .......                        ....XXX.                      ",
"  ......                          ......                        ",
"  .....                           .....                         ",
" ....                            ....                           ",
" ....                            ....                           ",
" ...                             ...                            ",
"...                             ...                             ",
"...                             ...                             ",
"..                              ..                              ",
"..                              ..                              ",
".                               .                               ",
".                              ..                              .",
"                               .                               .",
"                               .                               .",
"                 .............XX................              ..",
"                 .............X.................              . ",
"                 ............XX.................             .. ",
"                 ............XX.................             .. ",
"                 ...........XXX.................            ... ",
"                 ..........XXX..................           ...  ",
"                 .........XXX....................         ...   ",
"                 ........XXX.....................        ...    ",
"                 .......XXX......................       ...     ",
"                 .....XXXX.......................     ....      ",
"                ....XXXXX........................   .....       ",
"                ...XXXXX.........................  .....        ",
"               ..XXXXX...........................XX...          ",
"              ..XXXX..........................XXXX..            ",
"           .XXXXXX.........................XXXXX...             ",
"    ......XXX..........       ............XXXXXX..              ",
"........XXXX....   ..             .......XXXX......          ...",
"....XXXXXXX.....                   .....XXX.....................",
"...XXXXXXX.....                   ....XXX.     .................",
"..XXXXXX.......                   ......       .................",
"..XXXXX........                   .....        .................",
".XXXX..........                  ....          .................",
".XXXX..........                  ....           ................",
".XXX...........                  ...            ................",
"XXX............                 ...             ................",
"XXX............                 ...             ................",
"XX.............                 ..              ................",
"XX.............                 ..              ................",
"X..............                 .               ................",
"X..............                ..               ...............X",
"................               .                ...............X",
"................               .                ...............X"
};
