/* XPM */
static char *_017cb0284544c6dc8631a2054de142cLkf8sttFDlTfyJmH[] = {
/* columns rows colors chars-per-pixel */
"64 64 215 2 ",
"   c None",
".  c #000000",
"X  c #090505",
"o  c #011100",
"O  c #001B00",
"+  c #000014",
"@  c #02001B",
"#  c #181818",
"$  c #111111",
"%  c #110004",
"&  c #2B0000",
"*  c #002B00",
"=  c #003800",
"-  c #003300",
";  c #00221E",
":  c #071628",
">  c #121C26",
",  c #1B063C",
"<  c #300023",
"1  c #142622",
"2  c #142823",
"3  c #162B28",
"4  c #182E2B",
"5  c #1A332D",
"6  c #1A3927",
"7  c #002637",
"8  c #1E3C34",
"9  c #043728",
"0  c #2E2E2E",
"q  c #213F3C",
"w  c #363536",
"e  c #004414",
"r  c #104E2F",
"t  c #1C5B3D",
"y  c #0B5233",
"u  c #224736",
"i  c #26533B",
"p  c #29593D",
"a  c #245235",
"s  c #00673A",
"d  c #233344",
"f  c #223D47",
"g  c #243E49",
"h  c #283D4D",
"j  c #2F2F4B",
"k  c #26404A",
"l  c #2B434D",
"z  c #274847",
"x  c #2B5E44",
"c  c #2C594D",
"v  c #2A5449",
"b  c #2B4651",
"n  c #2D4B54",
"m  c #334B54",
"M  c #3A4D57",
"N  c #394A57",
"B  c #3D525A",
"V  c #325B5B",
"C  c #33545A",
"Z  c #325350",
"A  c #006C40",
"S  c #2D6247",
"D  c #206443",
"F  c #30654C",
"G  c #306A4F",
"H  c #35695C",
"J  c #356957",
"K  c #347A56",
"L  c #355D61",
"P  c #007664",
"I  c #167563",
"U  c #3E6667",
"Y  c #376C66",
"T  c #3B756A",
"R  c #3D7B6C",
"E  c #3A7663",
"W  c #3F7A71",
"Q  c #3E7672",
"!  c #2F6E63",
"~  c #494949",
"^  c #414D5A",
"/  c #404858",
"(  c #41555D",
")  c #425A5F",
"_  c #555555",
"`  c #5B5C5C",
"'  c #57585A",
"]  c #64545E",
"[  c #605D5F",
"{  c #66425A",
"}  c #4A725B",
"|  c #445661",
" . c #445B62",
".. c #495D66",
"X. c #675761",
"o. c #426264",
"O. c #4B636C",
"+. c #446C6A",
"@. c #466868",
"#. c #596368",
"$. c #43776E",
"%. c #43796E",
"&. c #48766A",
"*. c #437C72",
"=. c #4C7273",
"-. c #5C7779",
";. c #646364",
":. c #6A6668",
">. c #6D6C6D",
",. c #696367",
"<. c #7B6974",
"1. c #6A767B",
"2. c #747474",
"3. c #7B7B7B",
"4. c #7C7278",
"5. c #617672",
"6. c #807B7E",
"7. c #3B805D",
"8. c #00886A",
"9. c #3C826E",
"0. c #3F8873",
"q. c #269B66",
"w. c #3CB37E",
"e. c #35B87D",
"r. c #42856F",
"t. c #438375",
"y. c #448973",
"u. c #458679",
"i. c #458B7A",
"p. c #488C7D",
"a. c #498679",
"s. c #45917B",
"d. c #48927E",
"f. c #46997E",
"g. c #4A997E",
"h. c #449D70",
"j. c #55977D",
"k. c #588573",
"l. c #62826F",
"z. c #638471",
"x. c #73877C",
"c. c #4DA57A",
"v. c #4CAD7E",
"b. c #44A370",
"n. c #737E83",
"m. c #39BA80",
"M. c #33A980",
"N. c #4A9482",
"B. c #4C9C81",
"V. c #4F9E8A",
"C. c #559B86",
"Z. c #4C8F80",
"A. c #7B8789",
"S. c #4EA183",
"D. c #51A887",
"F. c #4EB581",
"G. c #41BD85",
"H. c #4EBA82",
"J. c #53B483",
"K. c #54B985",
"L. c #55B38A",
"P. c #56BB8A",
"I. c #59BD8C",
"U. c #5AB58A",
"Y. c #59BA92",
"T. c #62BD8D",
"R. c #7CA699",
"E. c #3CC182",
"W. c #5AC18D",
"Q. c #56C38D",
"!. c #5BC591",
"~. c #5ECB94",
"^. c #5DD296",
"/. c #5ED29E",
"(. c #47CA8A",
"). c #60CE96",
"_. c #66C996",
"`. c #61D297",
"'. c #62D49A",
"]. c #64DA9C",
"[. c #69D09A",
"{. c #62C28F",
"}. c #66DCA2",
"|. c #6CE8A8",
" X c #869899",
".X c #979696",
"XX c #8F8E8E",
"oX c #82A49B",
"OX c #969DA1",
"+X c #88BEA9",
"@X c #AAACAD",
"#X c #88CCA7",
"$X c #8AD6AB",
"%X c #8BD8AD",
"&X c #91CFAC",
"*X c #9CE4BA",
"=X c #8EE0B3",
"-X c #CAC9CA",
";X c #D1C9CE",
":X c #D2D2D2",
">X c #DBDDDC",
",X c #CFD7D5",
"<X c #D6E5DC",
"1X c #D9E0DF",
"2X c #DCDFE0",
"3X c #DEE8E3",
"4X c #DAF3E4",
"5X c #E3E3E3",
"6X c #ECECEC",
"7X c #E9E7E8",
"8X c #E8F5EE",
"9X c #F6F3F4",
"0X c #FFFFFF",
"qX c #F8F6F7",
"wX c #F1ECF0",
/* pixels */
"                                                                                                                                ",
"                                                                                                                                ",
"                                                                                                                                ",
"                                                                                                                                ",
"                                                                                                                                ",
"                                                                                                                                ",
"                                                                                                                                ",
"                                                                                                                                ",
"                                                                                                                                ",
"                                                                                                                                ",
"                                                                        `.`.                                                    ",
"                                                                        I.W.                                                    ",
"                                                                        d.Y.!.`.~.~.                i.i.i.i.                    ",
"                                                                        Q d.Y.}.|.~.                i.i.V.i.                    ",
"                                                                            g.Y.}.).                    i.i.                    ",
"                                                                            Q D.'.`.                    i.i.                    ",
"                                                                        d n $.S.`.`.        , , , h T u.Z.i.                    ",
"                                                                        d U Q S.).`.        H %.Y r.B.D.B.u.                    ",
"                                                                    d d d V R S.!.].].J.Z b c.W.I.I.!.Y.V.Q                     ",
"                                                                    V L k b Y s.L.~.].).y.r.W.].~.~.`.!.L.g.                    ",
"                                                                    t.*.n d l Y u.L.!.).I.I.).W.B.S.~.`.!.W.).`.                ",
"                                                                    s.N.Y n d b Y N.I.`.`.`.`.W.S.g.L.W.).'.}.W.                ",
"                                                                    i.N.i.T l l T B.!.].`.`.].].).I.g.S.~.~.D.g.!.'.            ",
"                                                                    p.N.y.T V V *.g.L.W.W.I.K.v.J.v.f.B.P.L.g.S./.Q.            ",
"                                                                    p.i.v i Y t.u.s.g.B.B.y.J r - s v.Y.S.S.Y.P.w.8.            ",
"                                                                    N.9.1 1 R N.p.u.t.u.N.9.: & { x.{.Q.s.s.Q.[.+X X            ",
"                                                            ^ o.t.d.N.t.5 5 T N.d.i.t.d.!.J.= X.;X<X%X(.s.s.G.%X8X6X            ",
"                                                            ^ =.p.N.u.H 1 5 R i.R r.s.S.I.b.* n.9X0X*Xe.0.s.m.*X0X0X            ",
"                                                    | B ) ( B @.p.0.c 2 . q R t.z F J.K.7.9 . 6.9X0X*Xm.s.0.E.*X0X0X            ",
"                                                    B O... .^ o.u.W 5 . . u t.R + a I.P.i . . >.;X<X#Xm.s.s.e.#X7X7X            ",
"                                                    ( .. .( /  .a.R u . . 8 R W > p P.P.S . . w :.x.C.d.i.s.f.j.A.2.            ",
"                                                    ( ..( |  .$.i.R 8 . 2 c y.R 1 p P.P.S . % . . . ! p.i.p.p.! . .             ",
"                                                    (  .( o.%.u.p.R 5 2 H y.i.R > p I.W.a . . . . 9 t.N.i.i.s.T 9 .             ",
"                                                    ( ..^ o.t.d.p.R 5 5 *.N.N.T : i v.{.K p S p o 3 H *.u.i.p.W c 2             ",
"                                                g b B ( ^ o.t.i.d.T 5 5 T N.p.T + a J.`.I.J.W.c.u . . z T i.t.0.W V @ .         ",
"                                                f B ( ) ^ o.t.s.s.R 5 5 R N.s.R q F J.'.'.`.{.v.K r a G 0.B.B.S.S.f.9.a         ",
"                                                g m B | ^ o.t.i.s.T 4 5 R d.i.y.T y.P.`.].I.G t q.w.P.P.w.(.W.!.G.E.^.K.        ",
"                                                g m B ( ^ o.t.p.p.R 5 5 T i.i.i.d.D.W.`.`.v.D } #X%X{.W.$X$XT.W.%X%X[.{.        ",
"                                            l k f l B ( / o.*.s.d.R 5 4 T u.*.s.J.).`.^.(.E.e.#X4X<Xl.l.<X<Xl.l.<X<Xz.5.3X0X    ",
"                                            g n l m B | ) +.u.s.d.T 2 5 y.S.N.D.~.`.v.T.#X$XH.&XqXwX] ] wX9X] ] 9X9X] X.0X0X    ",
"                                    l l g f f b M B / ) $.u.y.i.d.T . 6 c.!.W.!.`.K.s x.<X<X5.x.8X6X` ,.qX9X,.,.qXqX:.>.0X0X    ",
"                                    g m m m l m ^  . .$.u.i.i.i.i.r.c K P.].`.`.].v.o <.9X9X[ _ wX8X:._ :X:X' ` :X:X[ ;.5X0X    ",
"                                g f f b M ( M N M  .$.i.u.i.i.i.u.d.v.I.`.].'.'.}.J.- 4.qXqX,.,.9XqX3.. ;.>.0 0 2.2.            ",
"                                b M n m B  ...o.o.U u.i.i.i.i.u.t.S.{.`.I.v.J.J.P.b.- X.:X:X_ _ :X:X2.. . . . . . .             ",
"        ( (             l k k l M B B B /  .$.t.t.y.u.i.i.i.i.y.t.g.!.W.E a x x S i O w >.>.0 0 >.>.w . . . . .         0X0X    ",
"        ( (             k n b m B | |  .) &.y.p.i.s.i.i.i.i.i.u.y.B.~.J.i . . . . . % . . . . . . . . # X . . .         0X0X    ",
"    ( ( | B b f k l k l k l k l B | ^  .$.y.i.i.i.i.i.u.i.i.i.i.t.B.~.K.x . . . . . . . . . $ . . . . # X .             0X0X    ",
"    ( O. .B m m b b b b k k l m B ( B o.y.p.i.i.i.y.u.i.i.i.i.y.t.B.!.K.S . . . . . . . . . . w 2.2.w . . X             0X0X    ",
"    ( O. .( B N l f h k g l M ( ( ( / o.t.i.i.i.i.y.i.i.i.i.i.u.y.g.~.K.F . . . . . . . . . . #.>X>X[ .                 0X0X    ",
"    ( ( B  . .( m l b l l m ( ( ( ) ) +.y.i.i.u.i.i.i.i.i.i.u.u.t.B.!.K.t < ,.3.3.3.3.2.2.2.:..X5X5X@X;.                0X0X    ",
"        ( O.| ( B ( M ( M B ( ( (  .%.i.u.i.i.i.u.i.i.i.i.i.i.y.t.B.~.K.e ] -X6X6X6X5X5X5X5X7X-XXX.X>X7X            0X0X0X0X    ",
"        ( ( ( ) ) ) ( ( ) ( ( ( ( o.%.u.i.i.i.u.i.i.i.u.i.i.i.y.t.B.~.v.= 4.6X0X9X9X0X0X0X0X0X7X~ ~ 0X0X            0X0X0X0X    ",
"            ( O.O.) ) ( ( ( ( ( ( ( ) +.u.i.i.i.i.y.i.i.i.u.i.u.t.S.~.H.- <.9X0X.XXX7X0X0X0X0X7X_ [ 0X0X        0X0X0X0X        ",
"            ) ( ( ( ( ( ) ( ( ( B ( M ) %.u.t.u.i.i.i.i.i.i.i.u.u.N.Y.F.y 2.>X,XZ _ 5X0XwX2X7X-X` [ >X0X        0X0X0X0X        ",
"                    ( O.) ( ( ( ( ( ( ( o.o.o.+.u.s.i.i.i.i.i.i.i.d.B.f.R a.R.R.I oXqX0X@Xn.n.1.o...            0X0X0X0X        ",
"                    ( ( ( ( ( ( ( ( ( ( ( ^ /  .%.u.u.i.i.i.y.t.t.*.Q *.a.0.I P P oX<X:X1.7 5.1.#.n             0X0X0X0X        ",
"                        (  .) ( ( ) ( ( ( ( ( (  .&.u.s.s.u.$. .o.o.o.o.o.o.U U o.-. XA.L A.2X7X            0X0X0X0X0X0X        ",
"                        ( .. .( ( ( ( ( ( ( ( ( /  .$.a.u.$.) / ^ ( ^ ^ ( / ^ ^ ^ m 7 : @ OX0X0X            0X0X0X0X0X0X        ",
"                        ( O.....( ( ( ( N / ( ......O.+.@.@.......| ( ^ | ^                 0X0X            0X0X                ",
"                        ( ( B ( ( ( ( ) &.&.| / B B ( ^ ^ ^ ( ( ( )  .+.+.o.                0X0X            0X0X                ",
"                                ( ..j +.U.I.                        t.N.a.u.i.i.            0X0X                                ",
"                                ( ) O.j.`.].                        d.i.p.N.S.u.            0X0X                                ",
"                                    L.!.).~.~.`.                        i.N.N.i.i.i.        0X0X                                ",
"                                    '.|.`.`.|.~.                        p.N.i.p.V.i.        0X0X                                "
};
