/* XPM */
static char *exit1635974480[] = {
/* columns rows colors chars-per-pixel */
"64 64 213 2 ",
"   c None",
".  c black",
"X  c #000001",
"o  c #010203",
"O  c #020208",
"+  c #060608",
"@  c #06060F",
"#  c #0D0F10",
"$  c #0A0B1E",
"%  c #0A0C1E",
"&  c #141619",
"*  c #0E0F23",
"=  c #0F1020",
"-  c #111226",
";  c #111326",
":  c #151728",
">  c #15172B",
",  c #17182D",
"<  c #181A2B",
"1  c #1A1C2F",
"2  c #1B1D30",
"3  c #1C1E31",
"4  c #1C1E32",
"5  c #222429",
"6  c #232629",
"7  c #23262A",
"8  c #26292D",
"9  c #2B2E32",
"0  c #2B2E33",
"q  c #2C2F34",
"w  c #2C2F36",
"e  c #2D3035",
"r  c #2F3237",
"t  c #303237",
"y  c #303337",
"u  c #303238",
"i  c #32353B",
"p  c #33363B",
"a  c #33373C",
"s  c #34373C",
"d  c #35383E",
"f  c #36393F",
"g  c #363A3F",
"h  c #242640",
"j  c #2A2D4F",
"k  c #2E3146",
"l  c #2F3247",
"z  c #373A40",
"x  c #373B40",
"c  c #383C41",
"v  c #3A3E44",
"b  c #2B2D53",
"n  c #2C2E54",
"m  c #2C2E55",
"M  c #2E3158",
"N  c #323553",
"B  c #33365B",
"V  c #34375C",
"C  c #34365F",
"Z  c #383C58",
"A  c #383B5D",
"S  c #383B5E",
"D  c #393C5E",
"F  c #393D5E",
"G  c #393C5F",
"H  c #3B3E62",
"J  c #3B3E64",
"K  c #3C4046",
"L  c #40444B",
"P  c #494D54",
"I  c #494E54",
"U  c #4A4E55",
"Y  c #4A4F56",
"T  c #4B4F56",
"R  c #4B5057",
"E  c #4C5057",
"W  c #4E525A",
"Q  c #4E535A",
"!  c #50555A",
"~  c #50555B",
"^  c #50555C",
"/  c #424666",
"(  c #464A65",
")  c #474B65",
"_  c #474B66",
"`  c #474A69",
"'  c #494D69",
"]  c #494D6C",
"[  c #4C506A",
"{  c #535860",
"}  c #545860",
"|  c #565A63",
" . c #555A66",
".. c #575C64",
"X. c #575D65",
"o. c #585D65",
"O. c #585D66",
"+. c #585E66",
"@. c #595E66",
"#. c #4F5371",
"$. c #515573",
"%. c #525674",
"&. c #535874",
"*. c #545974",
"=. c #555A75",
"-. c #565B78",
";. c #5C616A",
":. c #5D626B",
">. c #5B606D",
",. c #5E636C",
"<. c #5B6077",
"1. c #5C6177",
"2. c #5E637B",
"3. c #5E647A",
"4. c #61666F",
"5. c #606576",
"6. c #606676",
"7. c #616676",
"8. c #606677",
"9. c #626871",
"0. c #646972",
"q. c #646A73",
"w. c #656A74",
"e. c #666C74",
"r. c #676C76",
"t. c #676D76",
"y. c #676D7B",
"u. c #696F78",
"i. c #686E7C",
"p. c #696E7C",
"a. c #696F7C",
"s. c #6A707A",
"d. c #6B717A",
"f. c #6B717B",
"g. c #6C727B",
"h. c #6A707D",
"j. c #6B707D",
"k. c #6B717E",
"l. c #6B707F",
"z. c #6D737D",
"x. c #6C727E",
"c. c #6D737F",
"v. c #6E747E",
"b. c #6E747F",
"n. c #70767E",
"m. c #626782",
"M. c #626881",
"N. c #646A82",
"B. c #656B83",
"V. c #636984",
"C. c #666C85",
"Z. c #676C86",
"A. c #676D86",
"S. c #717781",
"D. c #717782",
"F. c #727881",
"G. c #727981",
"H. c #737981",
"J. c #737A81",
"K. c #717882",
"L. c #737982",
"P. c #737983",
"I. c #737A83",
"U. c #747A82",
"Y. c #757B82",
"T. c #747A83",
"R. c #757B83",
"E. c #747A84",
"W. c #747B84",
"Q. c #747B85",
"!. c #757B85",
"~. c #757B86",
"^. c #757C85",
"/. c #767D86",
"(. c #777D87",
"). c #777E88",
"_. c #787E88",
"`. c #787E89",
"'. c #7D848F",
"]. c #808792",
"[. c #818893",
"{. c #818894",
"}. c #828995",
"|. c #828A95",
" X c #868D99",
".X c #868E99",
"XX c #878F9B",
"oX c #8D94A1",
"OX c #8E96A3",
"+X c #9199A6",
"@X c #949DAA",
"#X c #959DAA",
"$X c #959DAB",
"%X c #959EAB",
"&X c #969EAE",
"*X c #969FAE",
"=X c #979FAF",
"-X c #979FB0",
";X c #97A0AF",
":X c #99A2AF",
">X c #97A0B0",
",X c #9AA3B1",
"<X c #9BA4B2",
"1X c #9CA5B3",
"2X c #9EA6B3",
"3X c #9EA7B3",
"4X c #9EA7B4",
"5X c #9FA7B5",
"6X c #A0A9B7",
"7X c #A2ABB9",
"8X c #A5AEBD",
"9X c #A7B0BF",
"0X c #ADB6C6",
/* pixels */
"                                                                                                                                ",
"                                                                                                                                ",
"                                                        . . . . . . . .                                                         ",
"                                                        u v z z z z v u                                                         ",
"                                                . . . 8 O.t.w.0.0.0.t.O.8 . . .                                                 ",
"                                                u c q U g.`.E.E.P.(.`.g.U q c u                                                 ",
"                                        . . . 8 O.t.0.t.n.G.P.G.G.P.G.n.t.9.u.O.8 . . .                                         ",
"                                        u c q U g.`.(.D.z.y.i.i.i.u.y.k.G.(.`.f.U q c u                                         ",
"                                    . 6 O.f.9.t.n.E.E.S.<.$.%.&.*.&.%.<.z.E.P.n.t.w.u.O.5 .                                     ",
"                                    5 Q f.(.E.D.k.y.k.7.( B F H F S V ( 5.k.i.z.G.E.`.f.W 5                                     ",
"                                . 5 | g.v.G.P.S.1.%.*.[ l ; 2 3 3 1 ; l [ -.%.1.S.G.G.z.g.| 5 .                                 ",
"                                6 Q g._.G.z.z.5.( V F N - . . . . . . * N H V ( 1.S.z.G._.g.W 5                                 ",
"                            . y ..f.v.n.n.v.3.] k ; 3 < @ . . . . . . @ < 3 ; k ' 3.z.G.G.z.g.O.u .                             ",
"                            . c f.`.D.v.v.1.' b $ . . . . o . . . . o . . . . * j ' 5.z.v.D.`.u.c .                             ",
"                            . q 0.E.n.k.1.) k $ O . . . . . . . . . . . . . . O $ k ( <.k.D.E.0.q .                             ",
"                            8 U t.P.G.k.$.V ; . . o . . . . . . . . . . . . o . . ; V %.i.G.E.t.U 8                             ",
"                        . u X.u.z.D.P.z.-.H 3 . . . . . . . . . . . . . . . . . . 3 H *.z.P.D.z.f.O.u .                         ",
"                        . v f.).D.v.z.5.] N < . . . . . . . . . . . . . . . . . . < N [ 5.z.v.D.(.u.v .                         ",
"                        . z w.E.G.i.3.) l - @ . . . . . . . . . . . . . . . . . . @ - l ) -.i.P.E.w.z .                         ",
"                        . s 0.E.G.i.$.V ; . . . . . . . . . . . . . . . . . . o . . . ; V *.i.G.E.0.s .                         ",
"                        . 0 9.E.Y.z.-.H 3 . . . . . . . . . . . . . . . . . . . . . . 4 H -.k.G.(.9.9 .                         ",
"                        8 U t.G.v.5.] N < . . . . . . . . . . . . . . . . . . . . . . < N [ 5.S.G.t.U 8                         ",
"                    . u O.f.n.k.3.( l = @ . . . . . . . . . . . . . . . . . . . . . . @ = l ( <.k.v.f.X.u .                     ",
"                    . v u.`.E.i.$.B ; . . o . . . . . . . . . . . . . . . . . . . . o . . ; V %.y.G.`.f.v .                     ",
"                    . z w.E.G.i.%.S 1 . . . . . . . . . . . . . . . . . . . . . . . . . . 2 S &.i.G.E.w.z .                     ",
"                    . f 0.E.G.i.*.F 3 . . . . . . . . . . . . . . . . . . . . . . . . . . 3 F *.i.G.E.0.f .                     ",
"                    . f 0.E.G.i.*.F 3 . . . . . . . . . . . . . . . . . . . . . . . . . . 3 F *.i.G.E.0.f .                     ",
"                    . f 0.E.G.i.*.F 3 . . . . . . . . . . . . . . . . . . . . . . . . . . 3 F *.i.G.E.0.f .                     ",
"                    . f 0.E.G.i.*.F 3 . . . . . . . . . . . . . . . . . . . . . . . . . . 3 F *.i.G.E.0.f .                     ",
"                    . f 0.E.G.i.*.F 3 . . . . . . . . . . . . . . . . . . . . . . . . . . 3 F *.i.G.E.0.f .                     ",
"                    . f 0.E.G.i.*.F 3 . . . . . . . . . . . . . . . . . . . . . . . . . . 3 F *.i.G.E.0.f .                     ",
"                    . f 0.E.G.i.*.F 3 . . . . . . . . . . . . . . . . . . . . . . . . . . 3 F *.i.G.E.0.f .                     ",
"                    . f 0.E.G.i.*.F 3 . . . . . . . . . . . . . . . . . . . . . . . . . . 3 F *.i.G.E.0.f .                     ",
"                    . f 0.E.G.i.*.F 3 . . . . . . . . . . . . . . . . . . . . . . . . . . 3 F *.i.G.E.0.f .                     ",
"                    . f 0.E.G.i.*.F 3 . . . . . . . . . . . . . . . . . . . . . . . . . . 3 F *.i.G.E.0.f .                     ",
"                    . f 0.E.G.i.*.F 3 . . . . . . . . . . . . . . . . . . . . . . . . . . 3 F *.i.G.E.0.f .                     ",
"                    . f 0.E.G.i.*.F 3 . . . . . . . . . . . . . . . . . . . . . . . . . . 3 F *.i.G.E.0.f .                     ",
"                    . f 0.E.G.i.*.F 3 . . . . . . . . . . . . . . . . . . . . . . . . . . 3 F *.i.G.E.0.f .                     ",
"                    . f 0.E.G.i.*.F 3 . . . . . . . . . . . . . . . . . . . . . . . . . . 3 F *.i.G.E.0.f .                     ",
"                    . f 0.E.G.i.*.F 3 . . . . . . . . . . . . . . . . . . . . . . . . . . 3 F *.i.G.E.0.f .                     ",
"                    . f 0.E.G.i.*.F 3 . . . . . . . . . . . . . . . . . . . . . . . . . . 3 F *.i.G.E.0.f .                     ",
"                    . f 0.E.G.i.*.F 3 . . . . . . . . . . . . . . . . . . . . . . . . . . 3 F *.i.G.E.0.f .                     ",
"                    . f 0.E.G.i.*.F 3 . . . . . . . . . . . . . . . . . . . . . . . . . . 3 F *.i.G.E.0.f .                     ",
"                    . f 0.E.G.i.*.F 3 . . . . . . . . . . . . . . . . . . . . . . . . . . 3 F *.i.G.E.0.f .                     ",
"                    . f 0.E.G.i.*.F 3 . . . . . . . . . . . . . . . . . . . . . . . . . . 3 F *.i.G.E.0.f .                     ",
"                    . f 0.E.G.i.*.F 3 . . . . . . . . . . . . . . . . . . . . . . . . . . 3 F *.i.G.E.0.f .                     ",
"                    . z 0.E.G.i.*.F 3 . . . . . . . . . . . . . . . . . . . . . . . . . . 3 H *.i.G.E.0.f .                     ",
"                    . z 0.E.G.i.*.F 3 . . . . . . . . . . . . . . . . . . . . . . . . . . 3 F *.i.G.E.0.f .                     ",
"                    . f 0.E.G.i.*.F 3 . . . . . . . . . . . . . . . . . . . . . . . . . . 3 F *.i.G.E.0.f .                     ",
"                    . f 0.E.G.i.*.F 3 . . . . . . . . . . . . . . . . . . . . . . . . . . 3 F *.i.G.E.0.f .                     ",
"                    . f 0.G.G.i.*.F 3 . . . . . . . . . . . . . . . . . . . . . . . . . . 3 F *.u.G.E.0.f .                     ",
"                    . f 0.(.P.i.*.F 2 . . . . . . . . . . . . . . . . . . . . . . . . . . 2 F *.i.G.(.0.z .                     ",
"                    . x t.(.P.k.&.G : . . . . . . . . . . . . . . . . . . . . . . . . . . : S *.i.E.E.t.z .                     ",
"                    . e >.k.f.5.#.G h = , , , , , , , , , , , , , , , , , , , , , , , > * h F #.7.k.z.:.q .                     ",
"                . . . . V ] ` / H C M b b b b m m m m m m m m m m m m m m m m m m m m m b M V J / ' ] V . . . .                 ",
"                U X.Q X.3.N.m.m.N.Z.Z.Z.Z.Z.Z.Z.Z.Z.Z.Z.Z.Z.Z.Z.Z.Z.Z.Z.Z.Z.Z.Z.Z.Z.Z.Z.Z.C.C.B.m.m.V.3. .^ O.R                 ",
"            . U {.:X%X%X&X-X&X&X&X,X-X-X>X>X>X>X>X>X>X>X>X>X>X>X>X>X>X>X>X>X>X>X>X>X>X>X>X>X;X&X,X&X-X&X%X%X<X XE .             ",
"            . O.<X0X7X3X3X3X3X4X3X3X3X3X3X3X3X3X3X3X3X3X3X3X3X3X3X4X3X3X3X3X3X3X3X3X3X3X3X3X3X3X3X3X3X4X4X6X8X+X{ .             ",
"            . O.<X9XOX'.].[.[.[.[.[.[.[.[.[.[.[.[.[.[.[.[.[.[.[.[.[.[.[.[.[.[.[.[.[.[.[.[.[.[.[.].].[.[.{.{. XE.L .             ",
"            . U XXOXg...:.:.:.:.:.:.:.:.:.:.:.:.:.:.:.:.:.:.:.:.:.:.:.:.:.:.:.:.:.:.:.:.:.:.:.:.:.,.:.:.:.,.4.| q .             ",
"            . 8 W ^ K e p p p p p p p p p p p p p p p p p p p p p p p p p p p p p p p p p p p p p p p p p a f e & .             ",
"            # . . . . . . . . . . . . . . . . . . . . . . . . . . . . . . . . . . . . . . . . . . . . . . . . . . +             ",
"                                                                                                                                ",
"                                                                                                                                "
};
