/* XPM */
static char *b47f20e0eb1f4517c3a7c9efd0d5d06d9e7R6073YQjqrNm9[] = {
/* columns rows colors chars-per-pixel */
"37 63 12 1 ",
"  c None",
". c #1D0D0D",
"X c #3B3535",
"o c #6B247B",
"O c #33FF00",
"+ c #98813A",
"@ c #C89B13",
"# c #E1DA4B",
"$ c #BC44EF",
"% c #AAA092",
"& c #EBE3D7",
"* c white",
/* pixels */
"                                     ",
"                   ..                ",
"            .     .##.     .         ",
"            ..  ..#@*#..  ..         ",
"            .#..#@@@@*@#..#.         ",
"            .@#*@#@@@@@@*#@.         ",
"             .+@++@@+++@@+.          ",
"             ..............          ",
"            .%%%&&%%&&&&&%%.         ",
"            .%%&&&&%&&&&&&%.         ",
"            .%&&&&&&%&&&&&&.         ",
"            .%&&&&&&%&&&&.%.         ",
"            .&&&&&%...%%%O%.         ",
"            .&&&&%.OO%%%%O%.         ",
"           ..%&&&%.O.%%.%.%.         ",
"        ...oo.&&&&%.%%&.&%.o..       ",
"        .$.oo.%&&&&&%&&&&&.ooo..     ",
"         .$.oo....%&&&&&&%.oo.$.     ",
"         .$.oooo....&&..&.oo.$.      ",
"         .$..oo..........oo.$$.      ",
"          .$$..............$$.       ",
"           .$$o$o$$$...$$$$$.        ",
"         ..$$o$$$$o@###@o$$$.        ",
"       ..oooo$$o$$$$...$$$o$o.       ",
"      .o$o$o$oo$$$o@###@o$$o$o.      ",
"     .o$o$o$o$oooo#.....#oo$o$o.     ",
"     .$o$o$o$o$o$#.+.o.+.#$o$o$.     ",
"     .o$o$o$o$o$o#.X&&&X.#o$o$o.     ",
"     .$$$o$o$o$o$#.&.%.&.#$o$o$o.    ",
"    .o$o$$o$o$o$o#.%&&&%.#o$$$$$.    ",
"    .$$$$$$$$o$o$#..&&&..#$o$o$$.    ",
"    .$$$$o$o$$o$o#.+&.&+.#o$o$$$.    ",
"    .$$$$$$$$$$o$#.+...+.#$o$$$$.    ",
"    .$$$$$$$o$o$o#.+ooo+.#o$o$$$.    ",
"    .$$$$$$$$$$o$#.+ooo+.#$o$$$$.    ",
"    .$$$$$$$$$o$o#.+.o.+.#o$o$$$o.   ",
"   .o$$$$$$$$$$o$#.X&&&X.#$o$$$$$.   ",
"   .$$$$$$$$$o$$o#.&.%.&.#o$$o$$$.   ",
"   .$$$$$$$$$$$o$#.%&&&%.#$o$$$$$.   ",
"   .$$$$$$$$$$$$o#..&&&..#o$$o$$$.   ",
"   .$$$$$$$$$$$o$#.@&.&@.#$o$$$$$.   ",
"   .$$$$$$$$$o$$o#.@...@.#o$o$$$$.   ",
"   .$$$$$$$$$$$o$#.@ooo@.#$o$$$$$o.  ",
"  .o$$$$$$$$$$$$o#.@ooo@.#o$$$$$$$.  ",
"  .$$$$$$$$$$$o$$#.@.o.@.#$$o$$$$$.  ",
"  .$$$$$$$$$$$$$o#.X&&&X.#o$$$$$$$.  ",
"  .$$$$$$$$$$$$$$#.&.%.&.#$$$$$$$$.  ",
"  .$$$$$$$$$$$o$o#.%&&&%.#o$o$$$$$.  ",
"  .$$$$$$$$$$$$$$#..&&&..#$$$$$$$$.  ",
" .o$$$$$$$$$$$$$o#.@&.&@.#o$$$$$$$$. ",
" .$$$$$$$$$$$$$o$#.@...@.#$$$$$$$o$. ",
" .o$o$$$$$$$$$$$o#.@ooo@.#o$o$$$$$$. ",
"  .$$$o$$$o$$$o$$#.@ooo@.#$$$$o$o$o. ",
"  .o$o$$$$o$$o$$$#.@ooo@.#$o$o$$o$.  ",
"   .o..o$o$$$$o$o#.@ooo@.#$$$o$$$.   ",
"   ..  .$$oo$oo$$#..@@@..#$o$$o$o.   ",
"        .o..o.o$$#.......#$o$ooo.    ",
"        .. ...oo$#.......#$.o...     ",
"            ....o#.     .#o...       ",
"            ......       .....       ",
"            ....          ....       ",
"             ...          ...        ",
"                                     "
};
