/* XPM */
static char *empty1635954341[] = {
/* columns rows colors chars-per-pixel */
"64 64 9 1 ",
"  c #8D697A",
". c #FFAA5E",
"X c #FFECD6",
"o c #FFD4A3",
"O c #D08159",
"+ c #544E68",
"@ c #203C56",
"# c #0D2B45",
"$ c white",
/* pixels */
" .X.......ooO ++@+ OO .ooooo.................................X. ",
".XXooooooXooo  @@ OOXXXXXXXXXXXXXXXXXXoXXooooooooooXXXXooooooXX.",
".ooXXXXXXXooo  ++ oXooooooooooooXXXXXXXXXXXXXoooXXXXXXXXXXXXXoo.",
".oooXXoXXooooO  + oXoooooooooooo.o..ooooooooooooo.......ooXXooo.",
".XoooXoooooooo +  ooXooooooooooooooooooooooooooooooo.o.oooXoooX.",
".XooooXooooo.o    ooXooooooooooooooooXXXXXXXXXXXooooooooXXooooX.",
".ooooXXXXX...o    o.XXXXXXX....XXXXXX...........XXXXXXXXXXXoooo.",
".XoooX......oo +  ooX.....................................XoooX.",
".XoooX......oo  + ooX.....................................XoooX.",
".XoooX.......o  @ .oX.....................................XoooX.",
".XoooX.......o  @ .oX.....................................XoooX.",
".ooo........oo  + oo........................................ooo.",
".oooo.......oo  + oX..O....................................oooo.",
".XoooX......oo +  oX...O..................................XoooX.",
".XooX.X...OooO    oOOOOOOO.....O.OOOOO..........OOOOOO...X.Xooo.",
"oOXXXOOOOOOOo  +   OOOOOO.OOOOOOOOOOOOOOOOOOOOOOOOOOOOOOOOOXXXXo",
"  OOOOOOOO     @   OO  OOOO OOOO  O OOO OO    OOO   O OOOOOOOOX ",
"               +                ++++  +                         ",
"@++      +++   +++@@@@@@@++@@@@@@@@@@@@@@@++++++++++           +",
"@++  @@   +      ++@@@@@+ ++@@@@@@@@@@@@@@@@@++++++++++      ++@",
"      ++++++++  ++@@@@@@@@@++##@@@@@@@@@+@@++++++++++    @@  ++@",
" o................OOOOOOO+@@+##@@@@@@@@@++++++++++++++++++      ",
"..oooo....+..O.O.. OOOOOOO+@+#@@@OOOOOOO......................o ",
"o.....ooOOOOOOOOOO   O  OOO@ @@@OOOOOOOOOOOO...OO.........oooo..",
"........OOOOOOOOOOOOOOO     +@@OOOOO   OO...OOOOOOO.....oo.....o",
"oo......OOOOOOOOOOOOOOOOO   @@@OO ..    OOOOOOOOOOOOOOOO........",
"oo......OOOOOOOOOOOOOOOOO  @@@@OO OOOOOOOOOOOOOOOOOOOOOO......oo",
"oo.....oOOOOOOOOOOOO OOOO  @@@@OO OOOOOOOOOOOOO.  OOOOOO....O.oo",
"oo.....oOOOOOOOOOOOOOOOOOO @@@@OO OOOOOOOOOOOOOOOOOOOOOOo..Oo.oo",
"oo.....oOOOOO. OOOOOOOOOOO @@@+OO OO OOOOOOOOOOOOOOOOOOOo..o..oo",
"o.......OOOOO. OOOOOOOOOOO @@@ OO   O OO O OOOOOOOOOOOOOo..o..oo",
"o.......OOOOOOOOOOOOOOOOOO @@@@OO O      .OOOOOOOOOOOOOO.......o",
"o......XOOOOOOOOOOOOOOOOOO @@#@OO          OOOOOOOOOOOOO.......o",
"oo......OOOOOOOOOOOOOOOOO  @@#@OO O           OOOOOOOOOOX......o",
"oo.....o OOOOOOOOOOOOOO  O #@#@OO  ....  OO  OOOOOOOOOOO......oo",
"o....oOOO OOOOOOOOO+++++++O@#@@OO        OOO   OOOOO    o..o..oo",
"o. oO ....OOO   ++ +++++++@@+@@++   ++++        OOOO....OOo....o",
" ... ........OOO  +++++++@@@++@+++++++++      OOOOO....... Oo .o",
"      +++++++++++++@@@@@@@@++@@@+++     OOOOOOOOOO........... . ",
"@ @   +++++++++@@@@@++++++++++@@@@@@@@@@@@@@@@++++++++++++      ",
"@@ @ +@@++++++@+++ @@+ @@@@@@@@@@@@@@@@@@@@@++++++++++++++   @ @",
"     ++++++++++++++@@@@@@@@@@@@@@@@@@@@@+@@@+++@@@@+++++@@+ @ @@",
" o............ .O   OO++OOOOO+@@@@@@@@@@++++@++++++++++++++     ",
"O.oooo........O....OOOOOOOOOOOOOOOOOOOOOO++++@  ..............o ",
"O.....o...OOOOOOOOOOOO  OOOOO OOOOOOOOOO...++@  ..........oooo.O",
"Oo.....OOOOOOOOO              OOOOOOOOO.....+@  .........o.....O",
"Oo.....OOOOOOOOOOO                       Oo.+@  ....OOOOO.....oO",
"Oo....oOOOOOOOOOOOOO                     Oo.+@  ..OOOOOOO.....oO",
"Oo....oOOOOOOOOOOOOOO         + + +      O..+@  ..OOOOOOOo....oO",
"Oo.....OOOOOOOOOOOO           O+O+       O..++@ ..OO OOOOo....oO",
"Oo.... OOOOOOOOOOOOO           O+ +      O..++  ..OO.OOOO.....oO",
"O..... OOO OOOOOOOOO                     O..++  ..OOOOOOO ....oO",
"O......OOOO  OOOOOO  O+++++              O..+@  ..OOOOO.O  O...O",
"O.....oOOOOOOOOOOOOOO OOOOO             OO..+@  ..OOOOOOO.oo...O",
"O.....oOOOOOOOOOOOOOO                   OO..+@ OOOOOOOOOOo.....O",
"Oo.....OOOOOOOOOOOOOOOOO                OO..+@ oOOOoOOOOOo.....O",
"O....O.OOOOOOOOOOOOOOOO          +       O..+@  ooo.OOOOO.....oO",
"O.....    OO    +   +   +++ ++  ++      OOo.++  ..OOOOOOO.O....O",
" o.o ........OOOOOOO +++++++ + ++++++++++ OO+@ O          .....O",
"  .............OOOOOO@@@@@++++++++++++++  OO+++..OOO....    o.o ",
"@+++++++++++++++@@@@@@@@@@@@@@+++++++++   O+++@+OOO..........   ",
"@@@@@@+++++++++@@@@@@@@@@@@@@@@@@@@@@@+++++++@++++++++++++++++++",
"@@@@+@@@@@@@@@@@#@#@@@@@@@@@@@@@@@@@@@@@+++@@@+++++++@++++++++++",
"++++++++@@@@@@@@#@@@@@@@@@@@@@@@@@@@@@@@@+@@@+++++++@+++++@@@@++"
};
